<svg width="50" height="50" xmlns="http://www.w3.org/2000/svg"><g fill="none" fill-rule="evenodd"><path fill="#F5F8FA" d="M-295-2057h1440v3954H-295z"/><path stroke="#EFF2F4" fill="#FFF" d="M-294.5-24.5h1439v204h-1439z"/><g fill="#FFA701" fill-rule="nonzero"><path d="M36.121 23.121L22.88 9.88A3 3 0 0020.758 9H8a3 3 0 00-3 3v12.758a3 3 0 00.879 2.12L19.12 40.122a3 3 0 004.243 0L36.12 27.364a3 3 0 000-4.243zM12 19a3 3 0 110-6 3 3 0 010 6z" opacity=".4"/><path d="M44.121 27.364L31.364 40.12a3 3 0 01-4.243 0l-.021-.02 10.877-10.88a5.625 5.625 0 000-7.955L25.713 9h3.044a3 3 0 012.122.879L44.12 23.12a3 3 0 010 4.243z"/></g></g></svg>